<?xml version="1.0" encoding="utf-8"?>
<svg viewBox="0 0 500 500" xmlns="http://www.w3.org/2000/svg">
  <path d="M 186.949 17.814 L 186.949 31.762 L 175.526 37.489 L 175.526 23.562 L 186.949 17.814 Z" fill="#00507D"/>
  <path d="M 221.193 62.821 L 204.072 33.165 L 186.948 3.509 L 186.948 45.634 L 186.941 45.638 L 186.941 62.821 L 186.948 62.821 L 221.193 62.821 Z" fill="#005891"/>
  <path d="M 221.193 62.821 L 186.949 62.821 L 152.704 62.821 L 186.941 45.627 L 221.193 62.821 Z" fill="#134464"/>
  <path d="M 186.949 17.748 L 186.949 31.697 L 175.526 37.423 L 175.526 23.555 L 186.949 17.748 Z" fill="#3380AB"/>
  <path d="M 164.132 43.164 L 164.132 57.102 L 175.533 51.368 L 175.533 37.423 L 164.132 43.164 Z" fill="#3380AB"/>
  <path d="M 186.95 31.674 L 175.534 37.422 L 175.534 51.364 L 186.95 45.626 L 186.95 31.674 Z" fill="#00507D"/>
  <path d="M 186.95 31.674 L 175.534 37.422 L 175.534 51.364 L 186.95 45.626 L 186.95 31.674 Z" fill="#00507D"/>
  <path d="M 164.131 57.097 L 164.131 43.163 L 152.704 62.824 L 164.131 57.097 Z" fill="#005891"/>
  <path d="M 186.949 17.869 L 186.949 3.509 L 175.529 23.551 L 186.949 17.869 Z" fill="#5EABD8"/>
  <path d="M 155.721 86.982 C 154.278 86.938 153.379 86.303 153.023 85.069 C 152.858 84.662 152.773 83.994 152.773 83.065 L 152.773 81.369 C 152.803 81.182 152.95 81.087 153.21 81.087 L 153.68 81.087 C 153.952 81.12 154.087 81.215 154.087 81.369 L 154.087 83.065 C 154.087 85 154.631 85.991 155.717 86.042 L 157.409 86.042 C 158.257 86.042 158.926 85.528 159.417 84.508 L 159.417 79.787 L 160.673 79.787 L 160.673 83.065 L 160.673 83.693 C 160.673 84.695 160.453 85.425 160.012 85.888 C 159.227 86.618 158.445 86.986 157.659 86.986 L 157.285 86.986 L 155.721 86.986 L 155.721 86.982 Z M 156.756 76.773 C 157.028 76.773 157.241 76.851 157.391 77.001 L 157.619 77.478 L 157.391 77.974 C 157.241 78.124 157.028 78.201 156.756 78.201 C 156.473 78.201 156.257 78.124 156.106 77.974 L 155.879 77.478 L 156.106 77.001 C 156.257 76.851 156.473 76.773 156.756 76.773 Z M 165.537 86.982 L 163.485 86.982 C 162.523 86.96 161.899 86.596 161.62 85.884 C 161.491 85.392 161.429 84.618 161.429 83.561 L 161.429 78.323 C 161.462 78.135 161.605 78.04 161.869 78.04 L 162.277 78.04 C 162.549 78.073 162.684 78.161 162.684 78.323 L 162.684 83.249 C 162.684 84.945 162.769 85.789 162.934 85.789 C 163.081 85.976 163.257 86.06 163.466 86.038 L 165.537 86.038 L 165.537 86.982 L 165.537 86.982 Z M 164.112 86.042 L 167.343 86.042 L 167.343 86.982 L 164.112 86.982 L 164.112 86.042 Z M 166.039 86.042 L 169.27 86.042 L 169.27 86.982 L 166.039 86.982 L 166.039 86.042 Z M 170.742 86.042 L 171.116 85.793 C 171.281 85.793 171.366 84.948 171.366 83.252 L 171.366 80.617 C 171.366 80.459 171.501 80.367 171.773 80.334 L 172.181 80.334 C 172.441 80.334 172.588 80.43 172.621 80.617 L 172.621 83.564 C 172.621 84.622 172.559 85.392 172.434 85.888 L 172.416 86.046 L 173.183 86.046 L 173.183 86.986 L 168.433 86.986 L 168.433 86.046 L 170.742 86.046 L 170.742 86.042 Z M 169.648 87.72 C 169.919 87.72 170.129 87.797 170.283 87.947 L 170.51 88.428 L 170.283 88.92 C 170.132 89.074 169.919 89.148 169.648 89.148 C 169.365 89.148 169.149 89.074 168.994 88.92 L 168.767 88.428 L 168.994 87.947 C 169.145 87.797 169.361 87.72 169.648 87.72 Z M 171.446 87.72 C 171.729 87.72 171.946 87.797 172.096 87.947 L 172.324 88.428 L 172.096 88.92 C 171.946 89.074 171.729 89.148 171.446 89.148 C 171.164 89.148 170.947 89.074 170.797 88.92 L 170.569 88.428 L 170.797 87.947 C 170.951 87.797 171.164 87.72 171.446 87.72 Z M 171.825 86.042 L 175.055 86.042 L 175.055 86.982 L 171.825 86.982 L 171.825 86.042 Z M 181.152 86.042 L 181.152 83.311 C 180.851 82.129 180.142 81.538 179.034 81.538 L 175.569 81.538 L 175.569 80.723 L 178.546 77.889 L 179.423 78.546 L 177.276 80.598 L 178.168 80.598 L 178.718 80.598 L 179.504 80.598 C 181.178 80.8 182.143 81.707 182.404 83.329 L 182.404 86.042 L 182.94 86.042 L 182.94 86.982 L 174.222 86.982 L 174.222 86.042 L 181.152 86.042 L 181.152 86.042 Z M 182.11 86.042 L 184.177 86.042 C 184.389 86.064 184.566 85.98 184.713 85.793 C 184.878 85.793 184.962 84.948 184.962 83.252 L 184.962 78.326 C 184.962 78.168 185.098 78.077 185.37 78.044 L 185.777 78.044 C 186.038 78.044 186.188 78.135 186.218 78.326 L 186.218 83.564 C 186.218 84.622 186.155 85.392 186.03 85.888 C 185.748 86.596 185.127 86.963 184.166 86.986 L 182.114 86.986 L 182.114 86.042 L 182.11 86.042 Z M 187.143 78.359 C 187.176 78.168 187.319 78.077 187.583 78.077 L 187.99 78.077 C 188.262 78.106 188.398 78.201 188.398 78.359 L 188.398 86.67 C 188.398 86.857 188.251 86.952 187.957 86.952 L 187.583 86.952 C 187.293 86.952 187.143 86.861 187.143 86.67 L 187.143 78.359 L 187.143 78.359 Z M 198.166 90.12 C 196.723 90.076 195.824 89.438 195.468 88.204 C 195.303 87.8 195.218 87.132 195.218 86.2 L 195.218 82.625 C 195.251 82.437 195.394 82.342 195.659 82.342 L 196.129 82.342 C 196.4 82.375 196.536 82.47 196.536 82.625 L 196.536 86.2 C 196.536 88.134 197.079 89.126 198.166 89.177 L 199.858 89.177 C 200.706 89.177 201.374 88.663 201.866 87.643 L 201.866 81.039 L 203.121 81.039 L 203.121 86.042 L 204.204 86.042 L 204.204 86.982 L 203.121 86.982 C 203.121 87.881 202.901 88.56 202.464 89.019 C 201.679 89.75 200.897 90.117 200.111 90.117 L 199.737 90.117 L 198.166 90.117 L 198.166 90.12 Z M 199.201 78.029 C 199.473 78.029 199.685 78.106 199.836 78.256 L 200.064 78.734 L 199.836 79.226 C 199.685 79.38 199.469 79.457 199.201 79.457 C 198.918 79.457 198.702 79.38 198.551 79.226 L 198.324 78.734 L 198.551 78.256 C 198.702 78.106 198.918 78.029 199.201 78.029 Z M 202.758 86.042 L 205.988 86.042 L 205.988 86.982 L 202.758 86.982 L 202.758 86.042 Z M 204.689 86.042 L 207.919 86.042 L 207.919 86.982 L 204.689 86.982 L 204.689 86.042 Z M 214.016 83.315 C 213.715 82.133 213.007 81.542 211.898 81.542 L 208.437 81.542 L 208.437 80.727 L 211.414 77.893 L 212.291 78.55 L 210.143 80.602 L 211.035 80.602 L 211.586 80.602 L 211.898 80.602 L 212.368 80.602 C 214.042 80.804 215.007 81.711 215.268 83.333 L 215.268 86.986 L 207.082 86.986 L 207.082 86.046 L 214.012 86.046 L 214.012 83.315 L 214.016 83.315 Z M 219.867 86.134 L 219.867 80.411 L 221.185 80.411 C 221.218 83.682 221.222 85.613 221.203 86.196 L 221.093 86.824 C 220.781 88.149 219.875 89.012 218.381 89.412 C 218.182 89.452 217.951 89.474 217.69 89.474 L 217.316 89.474 C 216.105 89.474 215.499 89.338 215.499 89.067 C 215.499 88.891 215.572 88.659 215.716 88.377 C 216.615 88.524 217.21 88.593 217.503 88.593 C 218.619 88.593 219.383 88.002 219.775 86.824 L 219.867 86.134 Z" fill="#6E757C"/>
  <path d="M 170.719 73.51 C 170.517 73.51 170.297 73.473 170.069 73.407 C 168.972 73.084 168.425 72.372 168.425 71.275 L 168.425 70.827 C 168.634 69.744 169.28 69.201 170.355 69.201 L 170.517 69.201 C 171.398 69.201 172.081 69.491 172.569 70.074 C 173.009 70.574 173.204 71.521 173.149 72.901 L 173.729 72.901 L 173.729 73.51 L 170.719 73.51 Z M 171.622 72.798 C 172.044 72.772 172.25 72.754 172.242 72.754 L 172.242 71.557 C 172.242 71.388 172.217 71.205 172.161 71.007 C 171.835 70.206 171.281 69.806 170.495 69.806 C 169.772 69.806 169.357 70.217 169.254 71.036 C 169.276 71.653 169.397 72.093 169.621 72.358 C 169.842 72.622 170.22 72.78 170.748 72.835 C 171.075 72.824 171.233 72.816 171.225 72.816 L 171.225 72.794 L 171.622 72.794 L 171.622 72.798 Z M 170.099 67.692 L 170.51 67.839 L 170.656 68.151 L 170.51 68.47 L 170.099 68.617 L 169.676 68.47 L 169.53 68.151 L 169.676 67.839 L 170.099 67.692 Z M 171.266 67.692 L 171.688 67.839 L 171.835 68.151 L 171.688 68.47 L 171.266 68.617 L 170.844 68.47 L 170.697 68.151 L 170.844 67.839 L 171.266 67.692 Z M 172.833 72.901 L 174.926 72.901 L 174.926 73.51 L 172.833 73.51 L 172.833 72.901 Z M 174.081 72.901 L 176.174 72.901 L 176.174 73.51 L 174.081 73.51 L 174.081 72.901 Z M 175.333 72.901 L 177.425 72.901 L 177.425 73.51 L 175.333 73.51 L 175.333 72.901 Z M 176.585 72.901 L 178.677 72.901 L 178.677 73.51 L 176.585 73.51 L 176.585 72.901 Z M 177.833 72.901 L 179.925 72.901 L 179.925 73.51 L 177.833 73.51 L 177.833 72.901 Z M 179.085 72.901 L 181.177 72.901 L 181.177 73.51 L 179.085 73.51 L 179.085 72.901 Z M 185.13 71.132 C 184.932 70.364 184.477 69.983 183.757 69.983 L 181.511 69.983 L 181.511 69.454 L 183.442 67.615 L 184.011 68.041 L 182.616 69.373 L 183.196 69.373 L 183.552 69.373 L 183.754 69.373 L 184.058 69.373 C 185.141 69.502 185.769 70.093 185.938 71.143 L 185.938 73.51 L 180.63 73.51 L 180.63 72.901 L 185.123 72.901 L 185.123 71.132 L 185.13 71.132 Z M 191.789 73.51 C 191.598 74.303 191.022 74.828 190.053 75.085 L 189.605 75.129 L 189.359 75.129 C 188.573 75.129 188.181 75.041 188.181 74.865 L 188.324 74.417 C 188.907 74.512 189.293 74.56 189.484 74.56 C 190.207 74.56 190.699 74.178 190.956 73.411 L 191.018 72.967 L 191.018 69.256 L 191.873 69.256 C 191.895 71.377 191.895 72.592 191.884 72.908 L 192.475 72.908 L 192.475 73.517 L 191.789 73.517 L 191.789 73.51 Z M 191.547 72.901 L 193.639 72.901 L 193.639 73.51 L 191.547 73.51 L 191.547 72.901 Z M 192.795 72.901 L 194.887 72.901 L 194.887 73.51 L 192.795 73.51 L 192.795 72.901 Z M 194.046 72.901 L 196.139 72.901 L 196.139 73.51 L 194.046 73.51 L 194.046 72.901 Z M 195.295 72.901 L 197.387 72.901 L 197.387 73.51 L 195.295 73.51 L 195.295 72.901 Z M 196.546 72.901 L 198.639 72.901 L 198.639 73.51 L 196.546 73.51 L 196.546 72.901 Z M 197.798 72.901 L 199.89 72.901 L 199.89 73.51 L 197.798 73.51 L 197.798 72.901 Z M 202.056 72.901 L 202.247 72.739 C 202.357 72.739 202.412 72.189 202.412 71.091 L 202.412 69.59 L 202.676 69.406 L 202.941 69.406 L 203.223 69.59 L 203.223 71.293 C 203.223 71.976 203.183 72.479 203.102 72.798 L 203.069 72.901 L 204.24 72.901 L 204.585 72.739 C 204.695 72.739 204.747 72.189 204.747 71.091 L 204.747 69.384 L 205.011 69.204 L 205.275 69.204 L 205.562 69.384 L 205.562 71.293 C 205.562 71.976 205.521 72.479 205.44 72.798 C 205.257 73.257 204.857 73.495 204.233 73.51 L 199.354 73.51 L 199.354 72.901 L 199.916 72.901 L 200.078 72.739 C 200.184 72.739 200.239 72.189 200.239 71.091 L 200.239 69.788 L 200.503 69.608 L 200.768 69.608 L 201.054 69.788 L 201.054 71.293 C 201.054 71.976 201.014 72.479 200.933 72.798 L 200.922 72.901 L 202.056 72.901 Z M 202.177 67.692 L 202.588 67.839 L 202.735 68.151 L 202.588 68.47 L 202.177 68.617 L 201.755 68.47 L 201.608 68.151 L 201.755 67.839 L 202.177 67.692 Z M 202.779 66.833 L 203.19 66.98 L 203.337 67.292 L 203.19 67.611 L 202.779 67.758 L 202.357 67.611 L 202.21 67.292 L 202.357 66.98 L 202.779 66.833 Z M 203.348 67.692 L 203.77 67.839 L 203.917 68.151 L 203.77 68.47 L 203.348 68.617 L 202.926 68.47 L 202.779 68.151 L 202.926 67.839 L 203.348 67.692 Z" fill="#17161A"/>
  <path d="M 174.345 97.898 L 174.588 97.737 C 174.694 97.737 174.749 97.193 174.749 96.103 L 174.749 94.407 L 175.01 94.224 L 175.271 94.224 L 175.553 94.407 L 175.553 96.305 C 175.553 96.984 175.509 97.483 175.432 97.795 C 175.311 98.207 175.01 98.441 174.533 98.504 L 171.156 98.504 C 170.535 98.489 170.135 98.254 169.955 97.795 C 169.875 97.48 169.834 96.981 169.834 96.305 L 169.834 94.407 L 170.117 94.224 L 170.381 94.224 L 170.642 94.407 L 170.642 96.103 C 170.642 97.193 170.693 97.737 170.803 97.737 L 171.148 97.898 L 174.345 97.898 Z M 172.584 92.877 L 172.73 93.185 L 172.584 93.501 L 172.172 93.647 L 171.758 93.501 L 171.611 93.185 L 171.758 92.877 L 172.172 92.733 L 172.584 92.877 Z M 173.755 92.877 L 173.901 93.185 L 173.755 93.501 L 173.336 93.647 L 172.918 93.501 L 172.771 93.185 L 172.918 92.877 L 173.336 92.733 L 173.755 92.877 Z" fill="#17161A"/>
  <path d="M 176.002 97.906 L 178.168 97.906 L 178.509 97.744 C 178.619 97.744 178.671 97.201 178.671 96.111 L 178.671 92.943 L 178.931 92.763 L 179.196 92.763 L 179.478 92.943 L 179.478 96.317 C 179.478 96.996 179.438 97.495 179.357 97.807 C 179.177 98.266 178.773 98.501 178.157 98.512 L 175.998 98.512 L 175.998 97.906 L 176.002 97.906 Z M 176.971 93.237 L 177.232 93.237 L 177.496 93.398 L 177.496 97.183 L 177.213 97.344 L 176.971 97.344 L 176.688 97.183 L 176.688 93.398 L 176.971 93.237 Z" fill="#17161A"/>
  <path d="M 183.388 98.505 L 182.235 98.505 C 182.033 98.505 181.82 98.472 181.589 98.402 C 180.499 98.079 179.956 97.374 179.956 96.284 L 179.956 95.84 C 180.165 94.764 180.804 94.225 181.876 94.225 L 182.037 94.225 C 182.712 94.225 183.289 94.511 183.773 95.095 C 184.21 95.59 184.405 96.559 184.35 97.998 L 184.276 98.402 C 184.074 99.257 183.494 99.812 182.533 100.068 L 182.088 100.109 L 181.846 100.109 C 181.068 100.109 180.675 100.021 180.675 99.848 L 180.818 99.404 C 181.395 99.496 181.78 99.544 181.967 99.544 C 182.683 99.54 183.157 99.195 183.388 98.505 Z M 182.841 97.899 L 183.487 97.859 L 183.487 96.625 C 183.487 96.449 183.461 96.266 183.406 96.06 C 183.069 95.238 182.599 94.83 181.993 94.83 C 181.248 94.83 180.818 95.249 180.712 96.093 C 180.73 96.721 180.855 97.176 181.083 97.448 C 181.31 97.719 181.696 97.884 182.232 97.939 L 182.444 97.917 L 182.444 97.895 L 182.841 97.895 L 182.841 97.899 Z" fill="#17161A"/>
  <path d="M 187.433 98.505 L 186.111 98.505 C 185.491 98.49 185.091 98.255 184.911 97.796 C 184.83 97.48 184.79 96.981 184.79 96.306 L 184.79 92.932 L 185.072 92.753 L 185.333 92.753 L 185.594 92.932 L 185.594 96.1 C 185.594 97.19 185.645 97.734 185.755 97.734 L 186.096 97.895 L 187.429 97.895 L 187.429 98.505 L 187.433 98.505 Z" fill="#17161A"/>
  <path d="M 188.588 97.895 L 186.51 97.895 L 186.51 98.5 L 188.588 98.5 L 188.588 97.895 Z" fill="#17161A"/>
  <path d="M 193.02 97.895 L 194.133 97.895 L 194.133 98.5 L 188.087 98.5 L 188.087 97.895 L 188.964 97.895 C 188.909 96.522 189.1 95.589 189.541 95.09 C 190.025 94.51 190.704 94.22 191.578 94.22 L 191.739 94.22 C 192.807 94.22 193.446 94.76 193.655 95.835 L 193.655 96.279 C 193.655 97.069 193.446 97.608 193.02 97.895 Z M 190.873 97.795 L 190.873 97.817 C 190.866 97.817 191.023 97.825 191.347 97.839 C 191.871 97.788 192.246 97.627 192.47 97.366 C 192.69 97.105 192.811 96.668 192.83 96.055 C 192.73 95.244 192.319 94.837 191.6 94.837 C 190.822 94.837 190.267 95.233 189.944 96.03 C 189.889 96.221 189.864 96.404 189.864 96.573 L 189.864 97.766 C 189.856 97.766 190.062 97.777 190.477 97.803 L 190.873 97.803 L 190.873 97.795 Z M 190.833 92.733 L 191.251 92.877 L 191.398 93.189 L 191.251 93.504 L 190.833 93.655 L 190.414 93.504 L 190.267 93.189 L 190.414 92.877 L 190.833 92.733 Z M 191.993 92.733 L 192.411 92.877 L 192.558 93.189 L 192.411 93.504 L 191.993 93.655 L 191.585 93.504 L 191.438 93.189 L 191.585 92.877 L 191.993 92.733 Z" fill="#17161A"/>
  <path d="M 198.621 98.504 C 198.364 98.842 197.946 99.095 197.37 99.268 C 197.168 99.293 196.973 99.312 196.786 99.312 L 196.665 99.312 C 195.887 99.312 195.31 99.04 194.94 98.504 L 193.537 98.504 L 193.537 97.899 L 194.606 97.899 L 194.485 97.554 C 194.429 97.286 194.404 97.043 194.404 96.83 L 194.404 96.786 C 194.404 95.784 195.009 95.046 196.217 94.569 L 196.661 94.529 L 196.863 94.529 C 197.847 94.529 198.574 95.054 199.04 96.104 C 199.095 96.408 199.121 96.647 199.121 96.83 C 199.121 97.282 199.066 97.638 198.948 97.899 L 199.543 97.899 L 199.543 98.504 L 198.621 98.504 Z M 195.252 96.625 L 195.252 96.948 C 195.391 98.089 195.85 98.662 196.625 98.662 L 196.907 98.662 C 197.528 98.662 197.968 98.24 198.24 97.392 L 198.284 96.948 L 198.284 96.625 C 198.284 95.986 197.865 95.502 197.032 95.175 L 196.72 95.142 C 196.155 95.182 195.681 95.557 195.299 96.261 L 195.252 96.625 Z" fill="#17161A"/>
  <path d="M 200.388 97.899 L 200.63 97.737 C 200.74 97.737 200.791 97.194 200.791 96.104 L 200.791 92.947 L 201.052 92.763 L 201.313 92.763 L 201.595 92.947 L 201.595 96.309 C 201.595 96.988 201.555 97.487 201.474 97.8 L 201.463 97.902 L 201.959 97.902 L 201.959 98.508 L 198.901 98.508 L 198.901 97.902 L 200.388 97.902 L 200.388 97.899 Z" fill="#17161A"/>
  <path d="M 201.432 97.899 L 202.765 97.899 L 203.106 97.737 C 203.216 97.737 203.268 97.194 203.268 96.104 L 203.268 92.936 L 203.528 92.756 L 203.793 92.756 L 204.075 92.936 L 204.075 96.309 C 204.075 96.988 204.035 97.488 203.954 97.8 C 203.774 98.258 203.37 98.493 202.754 98.508 L 201.432 98.508 L 201.432 97.899 Z" fill="#17161A"/>
</svg>